HIERARCHY
ROOT hip
{
  OFFSET 0.00112043 5.09927 -9.65472
  CHANNELS 6 Xposition Yposition Zposition Zrotation Xrotation Yrotation
  JOINT abdomen
  {
    OFFSET 0 -1.186 -1.5018
    CHANNELS 3 Zrotation Xrotation Yrotation
    JOINT abdomen2
    {
      OFFSET 0 9.964 0.2134
      CHANNELS 3 Zrotation Xrotation Yrotation
      JOINT chest
      {
        OFFSET 0 13.134 -3.2573
        CHANNELS 3 Zrotation Xrotation Yrotation
        JOINT neck
        {
          OFFSET 0 20.686 -1.6905
          CHANNELS 3 Zrotation Xrotation Yrotation
          JOINT head
          {
            OFFSET 0 7.238 -0.1237
            CHANNELS 3 Zrotation Xrotation Yrotation
            End Site
            {
              OFFSET 0 0 0
            }
          }
        }
        JOINT lCollar
        {
          OFFSET 1.7069 20.075 5.0056
          CHANNELS 3 Zrotation Xrotation Yrotation
          JOINT lShldr
          {
            OFFSET 13.6458 -0.047 -4.849
            CHANNELS 3 Zrotation Xrotation Yrotation
            JOINT lForeArm
            {
              OFFSET 28.3255 -0.9759 2.2888
              CHANNELS 3 Zrotation Xrotation Yrotation
              JOINT lHand
              {
                OFFSET 22.1583 -0.53 10.8316
                CHANNELS 3 Zrotation Xrotation Yrotation
                JOINT lThumb1
                {
                  OFFSET 0.786 0.112 2.5817
                  CHANNELS 3 Zrotation Xrotation Yrotation
                  JOINT lThumb2
                  {
                    OFFSET 0.3601 -0.878 4.2331
                    CHANNELS 3 Zrotation Xrotation Yrotation
                    JOINT lThumb2_End
                    {
                      OFFSET 1.8127 -1.216 2.2227
                      CHANNELS 3 Zrotation Xrotation Yrotation
                      End Site
                      {
                        OFFSET 0.0181 -0.0122 0.0222
                      }
                    }
                  }
                }
                JOINT lCarpal1
                {
                  OFFSET 0.9571 1.114 1.7695
                  CHANNELS 3 Zrotation Xrotation Yrotation
                  JOINT lIndex1
                  {
                    OFFSET 4.1246 0.487 4.1451
                    CHANNELS 3 Zrotation Xrotation Yrotation
                    JOINT lIndex2
                    {
                      OFFSET 3.4052 -1.454 2.7682
                      CHANNELS 3 Zrotation Xrotation Yrotation
                      JOINT lIndex2_End
                      {
                        OFFSET 1.4531 -1.795 1.2713
                        CHANNELS 3 Zrotation Xrotation Yrotation
                        End Site
                        {
                          OFFSET 0.0145 -0.0179 0.0127
                        }
                      }
                    }
                  }
                  JOINT lMid1
                  {
                    OFFSET 5.6954 0.21 2.1184
                    CHANNELS 3 Zrotation Xrotation Yrotation
                    JOINT lMid2
                    {
                      OFFSET 3.9766 -1.54 2.3863
                      CHANNELS 3 Zrotation Xrotation Yrotation
                      JOINT lMid2_End
                      {
                        OFFSET 1.4042 -1.926 1.125
                        CHANNELS 3 Zrotation Xrotation Yrotation
                        End Site
                        {
                          OFFSET 0.014 -0.0193 0.0113
                        }
                      }
                    }
                  }
                }
                JOINT lCarpal2
                {
                  OFFSET 2.0956 0.66 -0.3894
                  CHANNELS 3 Zrotation Xrotation Yrotation
                  JOINT lRing1
                  {
                    OFFSET 5.0395 -0.09 2.4971
                    CHANNELS 3 Zrotation Xrotation Yrotation
                    JOINT lRing2
                    {
                      OFFSET 3.7921 -1.552 1.4806
                      CHANNELS 3 Zrotation Xrotation Yrotation
                      JOINT lRing2_End
                      {
                        OFFSET 1.4655 -1.808 0.9609
                        CHANNELS 3 Zrotation Xrotation Yrotation
                        End Site
                        {
                          OFFSET 0.0147 -0.0181 0.0096
                        }
                      }
                    }
                  }
                  JOINT lPinky1
                  {
                    OFFSET 4.9141 -1.269 0.3591
                    CHANNELS 3 Zrotation Xrotation Yrotation
                    JOINT lPinky2
                    {
                      OFFSET 3.1477 -1.685 0.8462
                      CHANNELS 3 Zrotation Xrotation Yrotation
                      JOINT lPinky2_End
                      {
                        OFFSET 0.8055 -1.585 0.7955
                        CHANNELS 3 Zrotation Xrotation Yrotation
                        End Site
                        {
                          OFFSET 0.0081 -0.0158 0.008
                        }
                      }
                    }
                  }
                }
              }
            }
          }
        }
        JOINT rCollar
        {
          OFFSET -1.7069 20.075 5.0056
          CHANNELS 3 Zrotation Xrotation Yrotation
          JOINT rShldr
          {
            OFFSET -13.6458 -0.047 -4.849
            CHANNELS 3 Zrotation Xrotation Yrotation
            JOINT rForeArm
            {
              OFFSET -28.3255 -0.9759 2.2888
              CHANNELS 3 Zrotation Xrotation Yrotation
              JOINT rHand
              {
                OFFSET -22.1583 -0.53 10.8316
                CHANNELS 3 Zrotation Xrotation Yrotation
                JOINT rThumb1
                {
                  OFFSET -0.786 0.112 2.5817
                  CHANNELS 3 Zrotation Xrotation Yrotation
                  JOINT rThumb2
                  {
                    OFFSET -0.3601 -0.878 4.2331
                    CHANNELS 3 Zrotation Xrotation Yrotation
                    JOINT rThumb2_End
                    {
                      OFFSET -1.8127 -1.216 2.2227
                      CHANNELS 3 Zrotation Xrotation Yrotation
                      End Site
                      {
                        OFFSET -0.0181 -0.0122 0.0222
                      }
                    }
                  }
                }
                JOINT rCarpal1
                {
                  OFFSET -0.9571 1.114 1.7695
                  CHANNELS 3 Zrotation Xrotation Yrotation
                  JOINT rIndex1
                  {
                    OFFSET -4.1246 0.487 4.1451
                    CHANNELS 3 Zrotation Xrotation Yrotation
                    JOINT rIndex2
                    {
                      OFFSET -3.4052 -1.454 2.7682
                      CHANNELS 3 Zrotation Xrotation Yrotation
                      JOINT rIndex2_End
                      {
                        OFFSET -1.4531 -1.795 1.2713
                        CHANNELS 3 Zrotation Xrotation Yrotation
                        End Site
                        {
                          OFFSET -0.0145 -0.018 0.0127
                        }
                      }
                    }
                  }
                  JOINT rMid1
                  {
                    OFFSET -5.6954 0.21 2.1184
                    CHANNELS 3 Zrotation Xrotation Yrotation
                    JOINT rMid2
                    {
                      OFFSET -3.9766 -1.54 2.3863
                      CHANNELS 3 Zrotation Xrotation Yrotation
                      JOINT rMid2_End
                      {
                        OFFSET -1.4042 -1.926 1.125
                        CHANNELS 3 Zrotation Xrotation Yrotation
                        End Site
                        {
                          OFFSET -0.014 -0.0193 0.0113
                        }
                      }
                    }
                  }
                }
                JOINT rCarpal2
                {
                  OFFSET -2.0956 0.66 -0.3894
                  CHANNELS 3 Zrotation Xrotation Yrotation
                  JOINT rRing1
                  {
                    OFFSET -5.0395 -0.09 2.4971
                    CHANNELS 3 Zrotation Xrotation Yrotation
                    JOINT rRing2
                    {
                      OFFSET -3.7921 -1.552 1.4806
                      CHANNELS 3 Zrotation Xrotation Yrotation
                      JOINT rRing2_End
                      {
                        OFFSET -1.4655 -1.808 0.9609
                        CHANNELS 3 Zrotation Xrotation Yrotation
                        End Site
                        {
                          OFFSET -0.0147 -0.0181 0.0096
                        }
                      }
                    }
                  }
                  JOINT rPinky1
                  {
                    OFFSET -4.9141 -1.269 0.3592
                    CHANNELS 3 Zrotation Xrotation Yrotation
                    JOINT rPinky2
                    {
                      OFFSET -3.1477 -1.685 0.8462
                      CHANNELS 3 Zrotation Xrotation Yrotation
                      JOINT rPinky2_End
                      {
                        OFFSET -0.8055 -1.585 0.7955
                        CHANNELS 3 Zrotation Xrotation Yrotation
                        End Site
                        {
                          OFFSET -0.0081 -0.0158 0.008
                        }
                      }
                    }
                  }
                }
              }
            }
          }
        }
      }
    }
  }
  JOINT lThigh
  {
    OFFSET 8.367 -8.2066 0.5982
    CHANNELS 3 Zrotation Xrotation Yrotation
    JOINT lShin
    {
      OFFSET 2.1923 -43.463 -0.4932
      CHANNELS 3 Zrotation Xrotation Yrotation
      JOINT lFoot
      {
        OFFSET 0.7333 -45.8593 -2.6451
        CHANNELS 3 Zrotation Xrotation Yrotation
        End Site
        {
          OFFSET 2.6618 -4.2699 12.3931
        }
      }
    }
  }
  JOINT rThigh
  {
    OFFSET -8.367 -8.2066 0.5982
    CHANNELS 3 Zrotation Xrotation Yrotation
    JOINT rShin
    {
      OFFSET -2.1923 -43.463 -0.4931
      CHANNELS 3 Zrotation Xrotation Yrotation
      JOINT rFoot
      {
        OFFSET -0.7333 -45.8593 -2.6451
        CHANNELS 3 Zrotation Xrotation Yrotation
        End Site
        {
          OFFSET -2.6618 -4.2699 12.3931
        }
      }
    }
  }
}
MOTION
Frames:	6
Frame Time:	0.0333333
0 91.7903 2.51682 0 0 -0 0 0 -0 0 0 -0 0 0 -0 0 0 -0 0 0 -0 0 0 -0 1.66051 0.0835086 5.75766 -0.0175111 0.895433 15.7816 7.95139e-016 -1.98785e-016 -0 5.46658e-016 -3.97569e-016 -0 5.96354e-016 0 -0 3.97569e-016 1.98785e-016 9.54166e-015 1.49089e-016 -3.97569e-016 -0 6.4605e-016 0 3.18055e-015 5.96354e-016 0 3.18055e-015 8.94531e-016 -1.98785e-016 6.36111e-015 6.4605e-016 0 3.18055e-015 5.96354e-016 0 3.18055e-015 8.94531e-016 -1.98785e-016 6.36111e-015 1.49089e-016 -3.97569e-016 -0 6.4605e-016 0 3.18055e-015 5.96354e-016 0 3.18055e-015 8.94531e-016 -1.98785e-016 6.36111e-015 6.4605e-016 0 3.18055e-015 5.96354e-016 0 3.18055e-015 8.94531e-016 -1.98785e-016 6.36111e-015 0 0 -0 -1.4496 0.0636048 -5.0245 -1.74811 1.20616 -16.8394 -1.19271e-015 1.98785e-016 -3.18055e-015 -3.97569e-016 1.98785e-016 -3.18055e-015 -2.98177e-016 1.98785e-016 -3.18055e-015 -2.98177e-016 3.97569e-016 -0 4.96962e-016 0 -6.36111e-015 -9.93923e-017 3.97569e-016 -0 -8.94531e-016 5.96354e-016 -0 -3.97569e-016 3.97569e-016 -0 -9.93923e-017 3.97569e-016 -0 -8.94531e-016 5.96354e-016 -0 -3.97569e-016 3.97569e-016 -0 4.96962e-016 0 -6.36111e-015 -9.93923e-017 3.97569e-016 -0 -8.94531e-016 5.96354e-016 -0 -3.97569e-016 3.97569e-016 -0 -9.93923e-017 3.97569e-016 -0 -8.94531e-016 5.96354e-016 -0 -3.97569e-016 3.97569e-016 -0 -4.66111 -0.998717 0.12318 0.00986924 1.54847 0.176523 4.65186 -0.572283 -0.254274 4.66111 -0.998765 -0.123176 -0.00986867 1.54869 -0.176537 -4.65186 -0.572453 0.25427 
-2.47232 85.5458 24.6389 -3.28563e-015 28.0015 180 -0.624806 3.82628 -0.221783 -1.23889 7.65473 -0.402979 -1.23889 7.65473 -0.402979 -4.51833e-006 2.80801e-005 -1.78983e-006 2.14817e-007 8.49308e-007 2.16771e-007 -25.9665 -9.11993 -26.1614 -8.93072 -22.1965 -16.0086 -17.9879 7.51109 -18.1818 -51.3712 10.284 14.2968 5.03489e-007 -5.07797e-007 -4.66074e-007 5.03489e-007 -5.07797e-007 -4.66074e-007 1.00698e-006 -1.01559e-006 -9.32149e-007 -3.18055e-015 -1.59028e-015 1.59028e-015 5.03489e-007 -5.07797e-007 -4.66074e-007 5.03489e-007 -5.07797e-007 -4.66074e-007 1.00698e-006 -1.01559e-006 -9.32149e-007 5.03489e-007 -5.07797e-007 -4.66074e-007 5.03489e-007 -5.07797e-007 -4.66074e-007 1.00698e-006 -1.01559e-006 -9.32149e-007 -3.18055e-015 -1.59028e-015 1.59028e-015 5.03489e-007 -5.07797e-007 -4.66074e-007 5.03489e-007 -5.07797e-007 -4.66074e-007 1.00698e-006 -1.01559e-006 -9.32149e-007 5.03489e-007 -5.07797e-007 -4.66074e-007 5.03489e-007 -5.07797e-007 -4.66074e-007 1.00698e-006 -1.01559e-006 -9.32149e-007 25.5282 1.26602 7.71092 34.2324 -7.41403 9.50731 15.1165 10.4043 -14.0242 48.9521 20.7826 3.22502 -2.37852e-006 4.39023e-007 -2.28106e-006 -4.36719e-007 -8.3883e-007 1.40762e-006 4.36719e-007 8.3883e-007 -1.40762e-006 -2.64834e-031 -6.36111e-015 -2.38542e-015 -2.37852e-006 4.39023e-007 -2.28106e-006 -4.36719e-007 -8.3883e-007 1.40762e-006 4.36719e-007 8.3883e-007 -1.40762e-006 -2.37852e-006 4.39023e-007 -2.28106e-006 -4.36719e-007 -8.3883e-007 1.40762e-006 4.36719e-007 8.3883e-007 -1.40762e-006 -2.64834e-031 -6.36111e-015 -2.38542e-015 -2.37852e-006 4.39023e-007 -2.28106e-006 -4.36719e-007 -8.3883e-007 1.40762e-006 4.36719e-007 8.3883e-007 -1.40762e-006 -2.37852e-006 4.39023e-007 -2.28106e-006 -4.36719e-007 -8.3883e-007 1.40762e-006 4.36719e-007 8.3883e-007 -1.40762e-006 104.333 -20.7843 132.015 -152.859 40.3254 124.195 16.4326 44.9439 12.6895 -178.452 -22.8851 173.392 -126.969 42.2617 102.198 1.64009 1.32276 22.4135 
-2.39906 85.0504 24.6852 -3.21566e-015 28.445 180 -0.623736 4.02562 -0.220933 -1.23646 8.05336 -0.39928 -1.23646 8.05338 -0.39928 0.138937 -0.196303 0.221167 0.05231 -0.223431 0.0196362 -25.4525 -9.89152 -27.2313 -8.7285 -22.2842 -15.6162 -17.6535 7.256 -17.4823 -52.0373 10.1767 14.0835 5.02864e-007 -5.08469e-007 -4.65983e-007 -2.01146e-006 2.03388e-006 1.86393e-006 2.72214e-006 8.61862e-007 4.95488e-006 0 0 -4.77083e-015 5.02864e-007 -5.08469e-007 -4.65983e-007 -2.01146e-006 2.03388e-006 1.86393e-006 2.72214e-006 8.61862e-007 4.95488e-006 5.02864e-007 -5.08469e-007 -4.65983e-007 -2.01146e-006 2.03388e-006 1.86393e-006 2.72214e-006 8.61862e-007 4.95488e-006 0 0 -4.77083e-015 5.02864e-007 -5.08469e-007 -4.65983e-007 -2.01146e-006 2.03388e-006 1.86393e-006 2.72214e-006 8.61862e-007 4.95488e-006 5.02864e-007 -5.08469e-007 -4.65983e-007 -2.01146e-006 2.03388e-006 1.86393e-006 2.72214e-006 8.61862e-007 4.95488e-006 23.9262 0.295074 7.56839 34.9853 -7.24715 9.88067 16.9129 10.6201 -13.7254 48.2775 19.8026 3.30428 3.97569e-016 0 1.59028e-015 2.18635e-007 4.19257e-007 -7.04169e-007 2.18635e-007 4.19257e-007 -7.04169e-007 7.95139e-016 0 1.19271e-015 -1.98785e-015 -6.36111e-015 6.75868e-015 2.18635e-007 4.19257e-007 -7.04169e-007 2.18635e-007 4.19257e-007 -7.04169e-007 -1.98785e-015 -6.36111e-015 6.75868e-015 2.18635e-007 4.19257e-007 -7.04169e-007 2.18635e-007 4.19257e-007 -7.04169e-007 7.95139e-016 0 1.19271e-015 -1.98785e-015 -6.36111e-015 6.75868e-015 2.18635e-007 4.19257e-007 -7.04169e-007 2.18635e-007 4.19257e-007 -7.04169e-007 -1.98785e-015 -6.36111e-015 6.75868e-015 2.18635e-007 4.19257e-007 -7.04169e-007 2.18635e-007 4.19257e-007 -7.04169e-007 104.753 -20.7906 132.259 -152.847 40.3418 124.21 15.8601 45.5264 13.4185 -178.622 -23.0977 173.262 -126.598 42.4543 101.974 1.39362 1.87559 22.3449 
-2.32569 84.5552 24.731 -3.14498e-015 28.8893 180 -0.622638 4.22517 -0.220076 -1.234 8.45251 -0.395573 -1.234 8.4525 -0.395573 0.278722 -0.392238 0.442955 0.104734 -0.447007 0.0394917 -24.9507 -10.6745 -28.2995 -8.52547 -22.3706 -15.2232 -17.3158 7.00482 -16.7809 -52.704 10.0719 13.8689 5.02313e-007 -5.09074e-007 -4.65888e-007 -5.02313e-007 5.09074e-007 4.65888e-007 -1.00463e-006 1.01815e-006 9.31776e-007 9.54166e-015 -6.36111e-015 -3.18055e-015 5.02313e-007 -5.09074e-007 -4.65888e-007 -5.02313e-007 5.09074e-007 4.65888e-007 -1.00463e-006 1.01815e-006 9.31776e-007 5.02313e-007 -5.09074e-007 -4.65888e-007 -5.02313e-007 5.09074e-007 4.65888e-007 -1.00463e-006 1.01815e-006 9.31776e-007 9.54166e-015 -6.36111e-015 -3.18055e-015 5.02313e-007 -5.09074e-007 -4.65888e-007 -5.02313e-007 5.09074e-007 4.65888e-007 -1.00463e-006 1.01815e-006 9.31776e-007 5.02313e-007 -5.09074e-007 -4.65888e-007 -5.02313e-007 5.09074e-007 4.65888e-007 -1.00463e-006 1.01815e-006 9.31776e-007 22.3145 -0.675773 7.39796 35.7375 -7.07527 10.2519 18.7174 10.846 -13.4323 47.6073 18.8202 3.37098 1.6201e-007 -3.23699e-006 -9.71971e-007 5.69145e-008 3.6561e-006 2.675e-007 1.6201e-007 -3.23699e-006 -9.71971e-007 4.37326e-015 6.36111e-015 3.57812e-015 1.6201e-007 -3.23699e-006 -9.71971e-007 5.69145e-008 3.6561e-006 2.675e-007 1.6201e-007 -3.23699e-006 -9.71971e-007 1.6201e-007 -3.23699e-006 -9.71971e-007 5.69145e-008 3.6561e-006 2.675e-007 1.6201e-007 -3.23699e-006 -9.71971e-007 4.37326e-015 6.36111e-015 3.57812e-015 1.6201e-007 -3.23699e-006 -9.71971e-007 5.69145e-008 3.6561e-006 2.675e-007 1.6201e-007 -3.23699e-006 -9.71971e-007 1.6201e-007 -3.23699e-006 -9.71971e-007 5.69145e-008 3.6561e-006 2.675e-007 1.6201e-007 -3.23699e-006 -9.71971e-007 105.173 -20.7951 132.502 -152.834 40.3582 124.224 15.2715 46.1039 14.163 -178.794 -23.3098 173.13 -126.225 42.6455 101.746 1.14742 2.4286 22.2783 
-2.25221 84.0602 24.7763 -3.07368e-015 29.3337 180 -0.621508 4.42499 -0.219211 -1.23151 8.85205 -0.391859 -1.23151 8.85206 -0.391859 0.419315 -0.588048 0.665344 0.157279 -0.670732 0.0595682 -24.4614 -11.4685 -29.3662 -8.32166 -22.4557 -14.8295 -16.975 6.7575 -16.0779 -53.3713 9.96938 13.653 -6.86867e-007 5.58137e-008 2.38122e-007 -4.06271e-006 4.40144e-006 -7.62574e-006 1.76556e-031 -1.59028e-015 6.36111e-015 -3.18055e-015 4.77083e-015 -0 -6.86867e-007 5.58137e-008 2.38122e-007 -4.06271e-006 4.40144e-006 -7.62574e-006 -4.41391e-031 -3.18055e-015 -7.95139e-015 -6.86867e-007 5.58137e-008 2.38122e-007 -4.06271e-006 4.40144e-006 -7.62574e-006 -4.41391e-031 -3.18055e-015 -7.95139e-015 -3.18055e-015 4.77083e-015 -0 -6.86867e-007 5.58137e-008 2.38122e-007 -4.06271e-006 4.40144e-006 -7.62574e-006 -4.41391e-031 -3.18055e-015 -7.95139e-015 -6.86867e-007 5.58137e-008 2.38122e-007 -4.06271e-006 4.40144e-006 -7.62574e-006 -4.41391e-031 -3.18055e-015 -7.95139e-015 20.6931 -1.64515 7.19939 36.4888 -6.89846 10.621 20.5292 11.0819 -13.1452 46.9411 17.8357 3.42529 -1.56954e-006 -2.40939e-007 1.40396e-006 -2.19217e-007 -4.18976e-007 7.04719e-007 2.19217e-007 4.18976e-007 -7.04719e-007 -2.78299e-015 -3.18055e-015 2.38542e-015 -1.56954e-006 -2.40939e-007 1.40396e-006 -2.19217e-007 -4.18976e-007 7.04719e-007 2.19217e-007 4.18976e-007 -7.04719e-007 -1.56954e-006 -2.40939e-007 1.40396e-006 -2.19217e-007 -4.18976e-007 7.04719e-007 2.19217e-007 4.18976e-007 -7.04719e-007 -2.78299e-015 -3.18055e-015 2.38542e-015 -1.56954e-006 -2.40939e-007 1.40396e-006 -2.19217e-007 -4.18976e-007 7.04719e-007 2.19217e-007 4.18976e-007 -7.04719e-007 -1.56954e-006 -2.40939e-007 1.40396e-006 -2.19217e-007 -4.18976e-007 7.04719e-007 2.19217e-007 4.18976e-007 -7.04719e-007 105.593 -20.7978 132.745 -152.821 40.3747 124.237 14.6664 46.6763 14.9233 -178.966 -23.5212 172.996 -125.85 42.8354 101.516 0.901503 2.98191 22.2138 
-2.17862 83.5655 24.821 -3.00174e-015 29.7782 180 -0.62035 4.62494 -0.218337 -1.22899 9.25197 -0.38814 -1.22899 9.25196 -0.38814 0.560786 -0.783026 0.888349 0.209943 -0.894594 0.0798651 -23.9849 -12.2729 -30.4311 -8.11705 -22.5395 -14.4352 -16.6311 6.51421 -15.3734 -54.0391 9.86932 13.4358 4.41391e-032 1.59028e-015 -1.59028e-015 -1.50428e-006 1.53021e-006 1.39711e-006 3.55614e-006 -3.89511e-006 8.09198e-006 -3.18055e-015 -1.59028e-015 -3.18055e-015 6.36111e-015 7.95139e-015 7.95139e-015 -1.50428e-006 1.53021e-006 1.39711e-006 3.55614e-006 -3.89511e-006 8.09198e-006 6.36111e-015 7.95139e-015 7.95139e-015 -1.50428e-006 1.53021e-006 1.39711e-006 3.55614e-006 -3.89511e-006 8.09198e-006 -3.18055e-015 -1.59028e-015 -3.18055e-015 6.36111e-015 7.95139e-015 7.95139e-015 -1.50428e-006 1.53021e-006 1.39711e-006 3.55614e-006 -3.89511e-006 8.09198e-006 6.36111e-015 7.95139e-015 7.95139e-015 -1.50428e-006 1.53021e-006 1.39711e-006 3.55614e-006 -3.89511e-006 8.09198e-006 19.0619 -2.61171 6.97252 37.2391 -6.71674 10.9878 22.3474 11.3273 -12.8646 46.2785 16.8494 3.4674 -4.77083e-015 -3.18055e-015 -0 5.96354e-015 0 -0 -2.19505e-007 -4.18855e-007 7.04917e-007 -5.56597e-015 -3.18055e-015 1.59028e-015 -3.18055e-015 -6.36111e-015 7.95139e-015 2.78299e-015 0 -6.36111e-015 -2.19505e-007 -4.18855e-007 7.04917e-007 -3.18055e-015 -6.36111e-015 7.95139e-015 2.78299e-015 0 -6.36111e-015 -2.19505e-007 -4.18855e-007 7.04917e-007 -5.56597e-015 -3.18055e-015 1.59028e-015 -3.18055e-015 -6.36111e-015 7.95139e-015 2.78299e-015 0 -6.36111e-015 -2.19505e-007 -4.18855e-007 7.04917e-007 -3.18055e-015 -6.36111e-015 7.95139e-015 2.78299e-015 0 -6.36111e-015 -2.19505e-007 -4.18855e-007 7.04917e-007 106.012 -20.799 132.986 -152.808 40.3914 124.25 14.0444 47.2432 15.6999 -179.14 -23.732 172.861 -125.473 43.0239 101.284 0.655768 3.53534 22.1514 
